<svg width="134" height="48" viewBox="0 0 134 48" fill="none" xmlns="http://www.w3.org/2000/svg">
<path d="M0.00184478 29V28.5883H2.5895L10.5289 7.53419H11.2346L19.2329 28.5883H21.8499V29H12.7931V28.5883H16.0571L12.9695 20.4137H6.14754L3.05999 28.5883H6.32397V29H0.00184478ZM12.7931 20.002L9.55854 11.4451L6.32397 20.002H12.7931ZM42.814 21.09V21.5017H40.4616V28.1767H40.1087C39.6971 27.7356 39.5206 27.618 38.9325 27.618C37.5211 27.618 36.2566 29.4411 32.5516 29.4411C29.7875 29.4411 27.7291 28.5589 25.7296 26.5594C23.7888 24.6186 22.3186 21.9133 22.3186 18.5906C22.3186 14.0916 24.671 11.5333 25.7002 10.5041C27.4645 8.7398 29.7287 7.53419 32.6104 7.53419C35.6097 7.53419 36.1684 8.68099 37.6093 8.68099C38.3738 8.68099 38.6385 8.44575 38.9325 8.06348H39.3736V13.9445H39.0501C38.7267 11.9156 37.4917 7.94586 32.581 7.94586C26.7294 7.94586 25.7002 13.3858 25.7002 18.5906C25.7002 22.1486 26.2001 25.736 28.2878 27.618C29.464 28.6765 30.552 29.0294 32.5516 29.0294C34.9922 29.0294 37.6387 27.4415 37.6387 23.9717V21.5017H33.8454V21.09H42.814ZM43.3403 29V28.5883H46.6043V8.47516H43.3403V8.06348H49.9565L55.3965 23.8835H55.4553L60.8952 8.06348H67.3938V8.47516H64.1298V28.5883H67.3938V29H57.9253V28.5883H61.1893V8.65159H61.1305L54.1026 29.0294L47.1042 8.85742H47.0454V28.5883H50.3093V29H43.3403Z" fill="black"/>
<path d="M76.5674 22H75.1971L74.134 20.4644H74.071H72.9606V22H71.6849V16.4875H74.071C75.5436 16.4875 76.465 17.2514 76.465 18.4877C76.465 19.3146 76.0476 19.921 75.331 20.2281L76.5674 22ZM75.1735 18.4877C75.1735 17.8814 74.7798 17.527 74.0001 17.527H72.9606V19.4485H74.0001C74.7798 19.4485 75.1735 19.0862 75.1735 18.4877ZM79.3737 20.9762H82.3741V22H78.1058V16.4875H82.2717V17.5112H79.3737V18.7082H81.933V19.7005H79.3737V20.9762ZM88.1378 22L87.6495 20.8187H85.0901L84.6019 22H83.2946L85.7516 16.4875H87.0116L89.4765 22H88.1378ZM85.4996 19.8501H87.2479L86.3738 17.7396L85.4996 19.8501ZM90.6784 22V16.4875H91.9542V20.9605H94.7183V22H90.6784ZM100.189 20.9762H103.19V22H98.9214V16.4875H103.087V17.5112H100.189V18.7082H102.749V19.7005H100.189V20.9762ZM106.646 22.0945C105.772 22.0945 104.89 21.8346 104.402 21.4566L104.835 20.4959C105.299 20.8345 105.992 21.0707 106.654 21.0707C107.41 21.0707 107.717 20.8187 107.717 20.4801C107.717 19.4485 104.512 20.1572 104.512 18.1097C104.512 17.1726 105.268 16.393 106.835 16.393C107.528 16.393 108.237 16.5584 108.749 16.8812L108.355 17.8499C107.843 17.5585 107.315 17.4167 106.827 17.4167C106.071 17.4167 105.78 17.7002 105.78 18.0467C105.78 19.0626 108.985 18.3617 108.985 20.3856C108.985 21.307 108.221 22.0945 106.646 22.0945ZM111.552 22V17.527H109.788V16.4875H114.591V17.527H112.827V22H111.552ZM119.75 22L119.261 20.8187H116.702L116.214 22H114.906L117.363 16.4875H118.623L121.088 22H119.75ZM117.111 19.8501H118.86L117.986 17.7396L117.111 19.8501ZM123.155 22V17.527H121.391V16.4875H126.195V17.527H124.431V22H123.155ZM128.779 20.9762H131.78V22H127.511V16.4875H131.677V17.5112H128.779V18.7082H131.339V19.7005H128.779V20.9762Z" fill="black"/>
<path d="M4.61477 35.1418H4.69984L7.79422 42.883H8.55984V43H5.34849V42.883H6.36932L5.33786 40.214H2.73263L1.69053 42.883H2.60502V43H0.786677V42.883H1.54166L4.61477 35.1418ZM2.78579 40.097H5.28469L4.02992 36.9389L2.78579 40.097ZM11.4051 38.4276C11.476 38.4276 11.5327 38.4063 11.5752 38.3638H11.6603V39.4803H11.5752C11.5043 39.0762 11.359 38.7749 11.1392 38.5764C10.9266 38.3779 10.6714 38.2787 10.3736 38.2787C10.1397 38.2787 9.93763 38.3389 9.7675 38.4595C9.59736 38.58 9.51229 38.7643 9.51229 39.0124C9.51229 39.2109 9.56546 39.381 9.67179 39.5228C9.78522 39.6646 9.94472 39.7922 10.1503 39.9056C10.3701 40.0474 10.5863 40.1679 10.799 40.2672C11.0187 40.3664 11.242 40.4869 11.4689 40.6287C11.6886 40.7634 11.8552 40.9052 11.9687 41.0541C12.0821 41.1958 12.1388 41.3872 12.1388 41.6283C12.1388 41.8268 12.0927 42.0253 12.0006 42.2237C11.9084 42.4152 11.7702 42.5888 11.5858 42.7448C11.4015 42.9008 11.1959 43.0142 10.9691 43.0851C10.7493 43.163 10.526 43.202 10.2992 43.202C10.0511 43.202 9.77813 43.1453 9.48039 43.0319C9.18265 42.9256 9.00188 42.8724 8.93808 42.8724C8.82465 42.8724 8.74667 42.9149 8.70414 43H8.61907V41.4581H8.70414C8.81047 41.9898 9.01251 42.3939 9.31025 42.6704C9.60799 42.9468 9.95181 43.0851 10.3417 43.0851C10.7245 43.0851 11.0081 42.9965 11.1924 42.8192C11.3767 42.642 11.4689 42.44 11.4689 42.2131C11.4689 42.0288 11.4051 41.8728 11.2775 41.7452C11.1499 41.6176 10.962 41.4936 10.7139 41.3731C10.4658 41.2525 10.2354 41.1391 10.0227 41.0328C9.81003 40.9264 9.61508 40.813 9.43785 40.6925C9.09758 40.4515 8.92744 40.0758 8.92744 39.5653C8.92744 39.1613 9.06568 38.8245 9.34215 38.5552C9.48393 38.4205 9.63989 38.3212 9.81003 38.2574C9.98726 38.1936 10.168 38.1617 10.3523 38.1617C10.4799 38.1617 10.5969 38.1759 10.7033 38.2042C10.8096 38.2326 10.9053 38.2645 10.9904 38.3C11.0754 38.3283 11.1499 38.3567 11.2137 38.385C11.2846 38.4134 11.3484 38.4276 11.4051 38.4276ZM15.538 38.4276C15.6089 38.4276 15.6657 38.4063 15.7082 38.3638H15.7933V39.4803H15.7082C15.6373 39.0762 15.492 38.7749 15.2722 38.5764C15.0595 38.3779 14.8043 38.2787 14.5066 38.2787C14.2727 38.2787 14.0706 38.3389 13.9005 38.4595C13.7303 38.58 13.6453 38.7643 13.6453 39.0124C13.6453 39.2109 13.6984 39.381 13.8048 39.5228C13.9182 39.6646 14.0777 39.7922 14.2833 39.9056C14.503 40.0474 14.7193 40.1679 14.9319 40.2672C15.1517 40.3664 15.375 40.4869 15.6019 40.6287C15.8216 40.7634 15.9882 40.9052 16.1016 41.0541C16.2151 41.1958 16.2718 41.3872 16.2718 41.6283C16.2718 41.8268 16.2257 42.0253 16.1335 42.2237C16.0414 42.4152 15.9031 42.5888 15.7188 42.7448C15.5345 42.9008 15.3289 43.0142 15.1021 43.0851C14.8823 43.163 14.659 43.202 14.4322 43.202C14.184 43.202 13.9111 43.1453 13.6134 43.0319C13.3156 42.9256 13.1349 42.8724 13.0711 42.8724C12.9576 42.8724 12.8797 42.9149 12.8371 43H12.752V41.4581H12.8371C12.9435 41.9898 13.1455 42.3939 13.4432 42.6704C13.741 42.9468 14.0848 43.0851 14.4747 43.0851C14.8575 43.0851 15.1411 42.9965 15.3254 42.8192C15.5097 42.642 15.6019 42.44 15.6019 42.2131C15.6019 42.0288 15.538 41.8728 15.4104 41.7452C15.2828 41.6176 15.095 41.4936 14.8469 41.3731C14.5987 41.2525 14.3684 41.1391 14.1557 41.0328C13.943 40.9264 13.7481 40.813 13.5708 40.6925C13.2306 40.4515 13.0604 40.0758 13.0604 39.5653C13.0604 39.1613 13.1987 38.8245 13.4751 38.5552C13.6169 38.4205 13.7729 38.3212 13.943 38.2574C14.1202 38.1936 14.301 38.1617 14.4853 38.1617C14.6129 38.1617 14.7299 38.1759 14.8362 38.2042C14.9426 38.2326 15.0383 38.2645 15.1233 38.3C15.2084 38.3283 15.2828 38.3567 15.3466 38.385C15.4175 38.4134 15.4813 38.4276 15.538 38.4276ZM18.2249 40.416V40.8626C18.2249 41.1675 18.2319 41.4546 18.2461 41.724C18.2674 41.9934 18.3135 42.2308 18.3844 42.4364C18.4623 42.6349 18.5793 42.7944 18.7353 42.9149C18.8912 43.0284 19.1074 43.0851 19.3839 43.0851C19.7738 43.0851 20.1212 42.9894 20.426 42.798C20.7379 42.6066 20.9683 42.3514 21.1172 42.0323L21.2235 42.0749C21.0747 42.4293 20.8301 42.7058 20.4898 42.9043C20.1566 43.1028 19.788 43.202 19.3839 43.202C19.0507 43.202 18.7388 43.1418 18.4482 43.0213C18.1646 42.9078 17.9165 42.7483 17.7038 42.5428C17.4982 42.3301 17.3352 42.0784 17.2147 41.7878C17.0942 41.49 17.0339 41.1639 17.0339 40.8095C17.0339 40.455 17.0942 40.1183 17.2147 39.7993C17.3423 39.4732 17.5089 39.1896 17.7144 38.9486C17.9271 38.7076 18.1681 38.5162 18.4375 38.3744C18.714 38.2326 19.0047 38.1617 19.3095 38.1617C19.5505 38.1617 19.788 38.2149 20.0219 38.3212C20.2559 38.4276 20.465 38.58 20.6493 38.7785C20.8336 38.977 20.979 39.2144 21.0853 39.4909C21.1987 39.7674 21.2554 40.0758 21.2554 40.416H18.2249ZM20.2452 40.2991C20.2311 39.8241 20.2063 39.4342 20.1708 39.1294C20.1354 38.8245 20.0361 38.6012 19.8731 38.4595C19.7313 38.3389 19.5257 38.2787 19.2563 38.2787C19.0082 38.2787 18.8168 38.3319 18.6821 38.4382C18.5474 38.5374 18.4446 38.6792 18.3737 38.8635C18.317 39.0053 18.2816 39.1648 18.2674 39.342C18.2532 39.5193 18.2426 39.6894 18.2355 39.8525L18.2249 40.2991H20.2452ZM23.6468 38.3638H24.7102V38.4807H23.6468V42.5959C23.6468 42.7519 23.6681 42.8653 23.7106 42.9362C23.7532 43 23.8347 43.0319 23.9552 43.0319C24.1183 43.0319 24.2671 42.9716 24.4018 42.8511C24.5365 42.7306 24.6358 42.5605 24.6996 42.3407L24.8165 42.3726C24.7385 42.6845 24.5932 42.9008 24.3805 43.0213C24.1679 43.1418 23.9446 43.202 23.7106 43.202C23.2995 43.202 23.0088 43.0815 22.8387 42.8405C22.6685 42.5924 22.5835 42.2308 22.5835 41.7559V38.4807H21.7647V38.3638H22.5835V37.0133C22.6189 37.0204 22.6508 37.0275 22.6792 37.0346C22.7146 37.0346 22.7501 37.0346 22.7855 37.0346C23.0053 37.0204 23.1825 36.953 23.3172 36.8325C23.4519 36.712 23.5618 36.5844 23.6468 36.4497V38.3638ZM36.2796 35.7054C36.3576 35.7054 36.4179 35.6912 36.4604 35.6628C36.5029 35.6345 36.549 35.5813 36.5986 35.5033H36.6837V37.7151H36.5986C36.4143 36.9211 36.1378 36.3292 35.7692 35.9393C35.4006 35.5494 34.9504 35.3544 34.4187 35.3544C33.7453 35.3544 33.2455 35.6026 32.9194 36.0988C32.6004 36.5879 32.4409 37.6548 32.4409 39.2995C32.4409 39.817 32.4515 40.2459 32.4728 40.5862C32.4941 40.9194 32.5224 41.1994 32.5579 41.4262C32.6004 41.646 32.65 41.8268 32.7067 41.9685C32.7634 42.1103 32.8273 42.245 32.8981 42.3726C33.1604 42.8405 33.6673 43.0744 34.4187 43.0744C34.681 43.0744 34.9114 43.0532 35.1099 43.0106C35.3084 42.9752 35.475 42.9078 35.6097 42.8086C35.7515 42.7093 35.8578 42.5747 35.9287 42.4045C35.9996 42.2344 36.0351 42.0146 36.0351 41.7452V40.2034H34.8547V40.0864H38.3213V40.2034H37.3536V43H37.2685C37.2331 42.8937 37.1764 42.8086 37.0984 42.7448C37.0204 42.681 36.9141 42.6491 36.7794 42.6491C36.6802 42.6491 36.5667 42.6739 36.4391 42.7235C36.3186 42.7661 36.1591 42.8299 35.9606 42.9149C35.7621 43 35.5424 43.0673 35.3013 43.117C35.0603 43.1666 34.7909 43.1914 34.4932 43.1914C33.9828 43.1914 33.5043 43.1028 33.0576 42.9256C32.6181 42.7483 32.2353 42.479 31.9092 42.1174C31.257 41.4085 30.9309 40.494 30.9309 39.3739C30.9309 38.7997 31.0195 38.268 31.1968 37.7789C31.3811 37.2827 31.654 36.8325 32.0156 36.4284C32.3842 36.0244 32.7741 35.7266 33.1852 35.5352C33.6035 35.3367 34.0111 35.2375 34.4081 35.2375C34.6137 35.2375 34.8051 35.2623 34.9823 35.3119C35.1666 35.3615 35.3332 35.4147 35.4821 35.4714C35.6381 35.5281 35.7798 35.5813 35.9074 35.6309C36.0421 35.6805 36.1662 35.7054 36.2796 35.7054ZM42.6682 38.9911C42.6682 39.1046 42.6221 39.2074 42.5299 39.2995C42.4449 39.3846 42.3031 39.4271 42.1046 39.4271C41.9415 39.4271 41.8104 39.3917 41.7112 39.3208C41.619 39.2499 41.5729 39.1577 41.5729 39.0443C41.5729 38.9805 41.58 38.9096 41.5942 38.8316C41.6084 38.7466 41.6154 38.6721 41.6154 38.6083C41.6154 38.4524 41.5304 38.3744 41.3602 38.3744C41.1405 38.3744 40.9668 38.5197 40.8392 38.8104C40.7116 39.0939 40.6478 39.4519 40.6478 39.8844V42.883H41.4134V43H38.8188V42.883H39.5844V38.4807H38.8188V38.3638H40.6478V38.9805C40.825 38.4346 41.1688 38.1617 41.6792 38.1617C41.8352 38.1617 41.9734 38.1865 42.094 38.2361C42.2145 38.2858 42.3173 38.3531 42.4023 38.4382C42.4874 38.5162 42.5512 38.6048 42.5937 38.704C42.6434 38.8033 42.6682 38.899 42.6682 38.9911ZM47.9555 40.6819C47.9555 41.1072 47.8598 41.4971 47.6684 41.8516C47.477 42.206 47.2324 42.4967 46.9347 42.7235C46.7362 42.8724 46.5235 42.9894 46.2966 43.0744C46.0698 43.1595 45.8429 43.202 45.6161 43.202C45.3254 43.202 45.0383 43.1347 44.7548 43C44.4783 42.8724 44.2302 42.6952 44.0104 42.4683C43.7907 42.2415 43.6099 41.9756 43.4681 41.6708C43.3334 41.366 43.2661 41.0363 43.2661 40.6819C43.2661 40.3274 43.337 39.9978 43.4787 39.693C43.6205 39.3881 43.8013 39.1223 44.021 38.8954C44.2479 38.6686 44.4996 38.4914 44.776 38.3638C45.0596 38.2291 45.3396 38.1617 45.6161 38.1617C45.8996 38.1617 46.1797 38.2255 46.4561 38.3531C46.7397 38.4807 46.9914 38.6579 47.2111 38.8848C47.438 39.1116 47.6187 39.381 47.7534 39.693C47.8881 39.9978 47.9555 40.3274 47.9555 40.6819ZM44.9143 38.4807C44.8292 38.5516 44.7583 38.6438 44.7016 38.7572C44.6449 38.8706 44.5988 38.9876 44.5634 39.1081C44.535 39.2215 44.5137 39.335 44.4996 39.4484C44.4854 39.5547 44.4783 39.6433 44.4783 39.7142C44.4641 39.934 44.457 40.1537 44.457 40.3735C44.457 40.5862 44.457 40.8024 44.457 41.0222C44.457 41.2774 44.4677 41.5255 44.4889 41.7665C44.5244 42.2131 44.6201 42.5463 44.776 42.7661C44.9391 42.9787 45.2191 43.0851 45.6161 43.0851C45.85 43.0851 46.0414 43.0461 46.1903 42.9681C46.3392 42.8901 46.4561 42.7696 46.5412 42.6066C46.5696 42.5498 46.5979 42.479 46.6263 42.3939C46.6546 42.3017 46.6759 42.2096 46.6901 42.1174C46.7043 42.0253 46.7149 41.9366 46.722 41.8516C46.7362 41.7665 46.7432 41.7027 46.7432 41.6602L46.7645 40.6712C46.7645 40.6287 46.7645 40.5685 46.7645 40.4905C46.7645 40.4054 46.7645 40.3168 46.7645 40.2246C46.7645 40.1254 46.761 40.0261 46.7539 39.9269C46.7539 39.8276 46.7503 39.7355 46.7432 39.6504C46.7291 39.3952 46.6972 39.1896 46.6475 39.0337C46.605 38.8706 46.5554 38.7501 46.4987 38.6721C46.3994 38.5233 46.2754 38.4205 46.1265 38.3638C45.9847 38.307 45.811 38.2787 45.6055 38.2787C45.5062 38.2787 45.3892 38.2929 45.2545 38.3212C45.1269 38.3496 45.0135 38.4027 44.9143 38.4807ZM50.9472 38.3638V38.4807H50.0221L51.4789 41.809L52.5209 39.0124L52.2976 38.4807H51.7128V38.3638H54.4244V38.4807H53.4886L54.956 41.809L56.2002 38.4807H55.4665V38.3638H56.9233V38.4807H56.3278L54.552 43.2871H54.4669L52.606 39.1825L51.0641 43.2871H50.9791L48.8311 38.4807H48.2675V38.3638H50.9472ZM58.9745 38.3638H60.0378V38.4807H58.9745V42.5959C58.9745 42.7519 58.9957 42.8653 59.0383 42.9362C59.0808 43 59.1623 43.0319 59.2828 43.0319C59.4459 43.0319 59.5948 42.9716 59.7294 42.8511C59.8641 42.7306 59.9634 42.5605 60.0272 42.3407L60.1442 42.3726C60.0662 42.6845 59.9208 42.9008 59.7082 43.0213C59.4955 43.1418 59.2722 43.202 59.0383 43.202C58.6271 43.202 58.3364 43.0815 58.1663 42.8405C57.9962 42.5924 57.9111 42.2308 57.9111 41.7559V38.4807H57.0923V38.3638H57.9111V37.0133C57.9465 37.0204 57.9784 37.0275 58.0068 37.0346C58.0422 37.0346 58.0777 37.0346 58.1131 37.0346C58.3329 37.0204 58.5101 36.953 58.6448 36.8325C58.7795 36.712 58.8894 36.5844 58.9745 36.4497V38.3638ZM62.403 35.1737V39.1719C62.6512 38.4984 63.0801 38.1617 63.6897 38.1617C64.2497 38.1617 64.6857 38.3248 64.9976 38.6509C65.3096 38.977 65.4655 39.4838 65.4655 40.1715V42.883H66.2311V43H63.6578V42.883H64.4022V39.7674C64.4022 39.2074 64.3384 38.821 64.2108 38.6083C64.0832 38.3886 63.8776 38.2787 63.594 38.2787C63.2254 38.2787 62.9347 38.4488 62.7221 38.7891C62.5094 39.1223 62.403 39.5015 62.403 39.9269V42.883H63.1474V43H60.5741V42.883H61.3397V35.2906H60.5741V35.1737H62.403ZM74.8056 35.4289L76.475 40.9264L78.4529 35.4289H80.8348V35.5458H79.8672V42.883H80.8348V43H77.5916V42.883H78.5486V35.5458L75.837 43.0851H75.7413L73.4764 35.5458V42.883H74.4759V43H72.3917V42.883H73.3594V35.5458H72.3917V35.4289H74.8056ZM85.3872 42.3726C85.3872 42.5853 85.405 42.7377 85.4404 42.8299C85.4829 42.922 85.5538 42.9681 85.6531 42.9681C85.7523 42.9681 85.8303 42.9362 85.887 42.8724C85.9437 42.8015 85.9933 42.7271 86.0359 42.6491L86.1528 42.7023C86.0607 42.8795 85.9614 42.9929 85.8551 43.0425C85.7559 43.0922 85.6212 43.117 85.451 43.117C85.21 43.117 85.008 43.0744 84.8449 42.9894C84.689 42.8972 84.5649 42.7731 84.4727 42.6172C84.3239 42.8157 84.1644 42.961 83.9942 43.0532C83.8312 43.1524 83.6043 43.202 83.3137 43.202C83.0797 43.202 82.86 43.1701 82.6544 43.1063C82.4559 43.0496 82.2822 42.9681 82.1333 42.8618C81.9845 42.7554 81.8675 42.6314 81.7824 42.4896C81.6974 42.3407 81.6548 42.1777 81.6548 42.0004C81.6548 41.8232 81.6832 41.6743 81.7399 41.5538C81.8037 41.4262 81.8959 41.3199 82.0164 41.2348C82.144 41.1427 82.2999 41.0647 82.4843 41.0009C82.6757 40.9371 82.899 40.8733 83.1542 40.8095C83.4944 40.7244 83.7426 40.6252 83.8985 40.5117C84.0545 40.3912 84.1679 40.2565 84.2388 40.1077C84.2742 40.0297 84.3026 39.9411 84.3239 39.8418C84.3522 39.7426 84.3664 39.6221 84.3664 39.4803C84.3664 39.218 84.3522 39.0124 84.3239 38.8635C84.2955 38.7076 84.2494 38.5871 84.1856 38.502C84.1218 38.4169 84.0439 38.3602 83.9517 38.3319C83.8595 38.2964 83.7603 38.2787 83.654 38.2787C83.4838 38.2787 83.3704 38.3141 83.3137 38.385C83.257 38.4488 83.2286 38.541 83.2286 38.6615L83.2605 39.0549C83.2605 39.2889 83.0939 39.4058 82.7607 39.4058C82.5977 39.4058 82.463 39.381 82.3567 39.3314C82.2503 39.2818 82.1972 39.1967 82.1972 39.0762C82.1972 38.9699 82.2326 38.8635 82.3035 38.7572C82.3744 38.6438 82.4701 38.5445 82.5906 38.4595C82.7182 38.3673 82.8671 38.2964 83.0372 38.2468C83.2073 38.1901 83.3952 38.1617 83.6008 38.1617C84.1608 38.1617 84.5968 38.3567 84.9087 38.7466C85.2277 39.1365 85.3872 39.6752 85.3872 40.3629V42.3726ZM84.3239 40.2246C84.2459 40.3593 84.1431 40.4763 84.0155 40.5755C83.8879 40.6748 83.7355 40.7634 83.5583 40.8414C83.3881 40.9194 83.2499 40.9903 83.1435 41.0541C83.0443 41.1108 82.9628 41.1817 82.899 41.2667C82.8423 41.3447 82.8033 41.444 82.782 41.5645C82.7607 41.685 82.7501 41.8374 82.7501 42.0217C82.7501 42.4187 82.8033 42.6916 82.9096 42.8405C83.0159 42.9823 83.1932 43.0532 83.4413 43.0532C83.6823 43.0532 83.8737 43.0035 84.0155 42.9043C84.1573 42.798 84.2849 42.6597 84.3983 42.4896C84.3487 42.3336 84.3239 42.1599 84.3239 41.9685V40.2246ZM91.6445 42.883H92.4101V43H89.8368V42.883H90.5812V39.7674C90.5812 39.1932 90.5138 38.8033 90.3791 38.5977C90.2444 38.385 90.0424 38.2787 89.773 38.2787C89.4044 38.2787 89.1137 38.4488 88.901 38.7891C88.6884 39.1223 88.582 39.5086 88.582 39.9482V42.883H89.3264V43H86.7531V42.883H87.5187V38.4807H86.7531V38.3638H88.582V39.1719C88.8302 38.4984 89.259 38.1617 89.8687 38.1617C90.3508 38.1617 90.7442 38.2858 91.049 38.5339C91.2404 38.6969 91.3858 38.9132 91.485 39.1825C91.5913 39.4519 91.6445 39.778 91.6445 40.1608V42.883ZM96.81 42.3726C96.81 42.5853 96.8278 42.7377 96.8632 42.8299C96.9057 42.922 96.9766 42.9681 97.0759 42.9681C97.1751 42.9681 97.2531 42.9362 97.3098 42.8724C97.3665 42.8015 97.4162 42.7271 97.4587 42.6491L97.5757 42.7023C97.4835 42.8795 97.3843 42.9929 97.2779 43.0425C97.1787 43.0922 97.044 43.117 96.8738 43.117C96.6328 43.117 96.4308 43.0744 96.2677 42.9894C96.1118 42.8972 95.9877 42.7731 95.8955 42.6172C95.7467 42.8157 95.5872 42.961 95.417 43.0532C95.254 43.1524 95.0271 43.202 94.7365 43.202C94.5025 43.202 94.2828 43.1701 94.0772 43.1063C93.8787 43.0496 93.705 42.9681 93.5562 42.8618C93.4073 42.7554 93.2903 42.6314 93.2052 42.4896C93.1202 42.3407 93.0776 42.1777 93.0776 42.0004C93.0776 41.8232 93.106 41.6743 93.1627 41.5538C93.2265 41.4262 93.3187 41.3199 93.4392 41.2348C93.5668 41.1427 93.7227 41.0647 93.9071 41.0009C94.0985 40.9371 94.3218 40.8733 94.577 40.8095C94.9173 40.7244 95.1654 40.6252 95.3213 40.5117C95.4773 40.3912 95.5907 40.2565 95.6616 40.1077C95.6971 40.0297 95.7254 39.9411 95.7467 39.8418C95.775 39.7426 95.7892 39.6221 95.7892 39.4803C95.7892 39.218 95.775 39.0124 95.7467 38.8635C95.7183 38.7076 95.6722 38.5871 95.6084 38.502C95.5446 38.4169 95.4667 38.3602 95.3745 38.3319C95.2823 38.2964 95.1831 38.2787 95.0768 38.2787C94.9066 38.2787 94.7932 38.3141 94.7365 38.385C94.6798 38.4488 94.6514 38.541 94.6514 38.6615L94.6833 39.0549C94.6833 39.2889 94.5167 39.4058 94.1835 39.4058C94.0205 39.4058 93.8858 39.381 93.7795 39.3314C93.6731 39.2818 93.62 39.1967 93.62 39.0762C93.62 38.9699 93.6554 38.8635 93.7263 38.7572C93.7972 38.6438 93.8929 38.5445 94.0134 38.4595C94.141 38.3673 94.2899 38.2964 94.46 38.2468C94.6301 38.1901 94.818 38.1617 95.0236 38.1617C95.5836 38.1617 96.0196 38.3567 96.3315 38.7466C96.6505 39.1365 96.81 39.6752 96.81 40.3629V42.3726ZM95.7467 40.2246C95.6687 40.3593 95.5659 40.4763 95.4383 40.5755C95.3107 40.6748 95.1583 40.7634 94.9811 40.8414C94.8109 40.9194 94.6727 40.9903 94.5663 41.0541C94.4671 41.1108 94.3856 41.1817 94.3218 41.2667C94.2651 41.3447 94.2261 41.444 94.2048 41.5645C94.1835 41.685 94.1729 41.8374 94.1729 42.0217C94.1729 42.4187 94.2261 42.6916 94.3324 42.8405C94.4387 42.9823 94.616 43.0532 94.8641 43.0532C95.1051 43.0532 95.2965 43.0035 95.4383 42.9043C95.5801 42.798 95.7077 42.6597 95.8211 42.4896C95.7715 42.3336 95.7467 42.1599 95.7467 41.9685V40.2246ZM101.621 38.821C101.706 38.7147 101.791 38.6296 101.876 38.5658C101.969 38.4949 102.093 38.4595 102.249 38.4595C102.433 38.4595 102.571 38.5091 102.663 38.6083C102.762 38.7076 102.812 38.8175 102.812 38.938C102.812 39.0089 102.787 39.0727 102.738 39.1294C102.688 39.179 102.603 39.2038 102.482 39.2038C102.298 39.2038 102.192 39.1152 102.163 38.938C102.135 38.7607 102.078 38.6721 101.993 38.6721C101.937 38.6721 101.887 38.6934 101.844 38.7359C101.809 38.7785 101.756 38.8387 101.685 38.9167C101.777 39.0727 101.844 39.2215 101.887 39.3633C101.93 39.498 101.951 39.6646 101.951 39.8631C101.951 40.2884 101.795 40.6642 101.483 40.9903C101.171 41.3093 100.767 41.4688 100.271 41.4688C100.086 41.4688 99.8879 41.4369 99.6752 41.3731C99.4625 41.3022 99.2463 41.171 99.0266 40.9796C98.9911 41.008 98.945 41.0399 98.8883 41.0753C98.8316 41.1037 98.7749 41.1427 98.7182 41.1923C98.6686 41.2419 98.626 41.3022 98.5906 41.3731C98.5551 41.4369 98.5374 41.5148 98.5374 41.607C98.5374 42.0182 98.8954 42.2237 99.6114 42.2237C99.7177 42.2237 99.9269 42.2131 100.239 42.1918C100.402 42.1777 100.533 42.167 100.632 42.1599C100.739 42.1529 100.817 42.1493 100.866 42.1493C101.15 42.1493 101.401 42.1954 101.621 42.2875C101.841 42.3797 102.025 42.5073 102.174 42.6704C102.323 42.8263 102.433 43.0106 102.504 43.2233C102.582 43.436 102.621 43.6628 102.621 43.9039C102.621 44.4639 102.415 44.9282 102.004 45.2969C101.798 45.4883 101.561 45.63 101.292 45.7222C101.029 45.8144 100.749 45.8604 100.451 45.8604C100.21 45.8604 99.9588 45.825 99.6965 45.7541C99.4413 45.6903 99.2109 45.5875 99.0053 45.4457C98.587 45.1693 98.3779 44.8325 98.3779 44.4355C98.3779 44.1874 98.463 43.9712 98.6331 43.7869C98.8033 43.6097 99.0691 43.4183 99.4306 43.2127C99.0833 43.1772 98.7997 43.0603 98.58 42.8618C98.3602 42.6562 98.2503 42.3726 98.2503 42.0111C98.2503 41.77 98.3035 41.5538 98.4098 41.3624C98.5232 41.171 98.6969 41.0151 98.9309 40.8945C98.8316 40.774 98.7395 40.6323 98.6544 40.4692C98.5764 40.2991 98.5374 40.1006 98.5374 39.8737C98.5374 39.3704 98.7217 38.9592 99.0904 38.6402C99.2747 38.4772 99.4661 38.3567 99.6646 38.2787C99.8702 38.2007 100.072 38.1617 100.271 38.1617C100.505 38.1617 100.742 38.2149 100.983 38.3212C101.224 38.4276 101.437 38.5941 101.621 38.821ZM100.271 41.3518C100.441 41.3518 100.572 41.327 100.664 41.2774C100.763 41.2206 100.841 41.1179 100.898 40.969C100.976 40.7421 101.015 40.37 101.015 39.8525C101.015 39.3562 100.976 38.9699 100.898 38.6934C100.863 38.5516 100.799 38.4488 100.707 38.385C100.615 38.3141 100.462 38.2787 100.249 38.2787C100.086 38.2787 99.9588 38.307 99.8666 38.3638C99.7745 38.4134 99.7 38.4949 99.6433 38.6083C99.5299 38.8139 99.4732 39.2322 99.4732 39.8631C99.4732 40.4231 99.5193 40.8059 99.6114 41.0115C99.661 41.1179 99.7355 41.2029 99.8347 41.2667C99.934 41.3234 100.079 41.3518 100.271 41.3518ZM99.5689 43.2127C99.3917 43.3686 99.2676 43.5281 99.1967 43.6912C99.1329 43.8613 99.101 44.0563 99.101 44.276C99.101 44.7297 99.2144 45.0877 99.4413 45.35C99.6752 45.6123 100.026 45.7435 100.494 45.7435C100.969 45.7435 101.373 45.6194 101.706 45.3713C102.039 45.1232 102.206 44.7971 102.206 44.393C102.206 44.0315 102.085 43.7337 101.844 43.4998C101.603 43.2658 101.267 43.1489 100.834 43.1489L99.5689 43.2127ZM104.55 40.416V40.8626C104.55 41.1675 104.557 41.4546 104.571 41.724C104.593 41.9934 104.639 42.2308 104.71 42.4364C104.788 42.6349 104.905 42.7944 105.061 42.9149C105.217 43.0284 105.433 43.0851 105.709 43.0851C106.099 43.0851 106.446 42.9894 106.751 42.798C107.063 42.6066 107.294 42.3514 107.442 42.0323L107.549 42.0749C107.4 42.4293 107.155 42.7058 106.815 42.9043C106.482 43.1028 106.113 43.202 105.709 43.202C105.376 43.202 105.064 43.1418 104.773 43.0213C104.49 42.9078 104.242 42.7483 104.029 42.5428C103.824 42.3301 103.66 42.0784 103.54 41.7878C103.419 41.49 103.359 41.1639 103.359 40.8095C103.359 40.455 103.419 40.1183 103.54 39.7993C103.668 39.4732 103.834 39.1896 104.04 38.9486C104.252 38.7076 104.493 38.5162 104.763 38.3744C105.039 38.2326 105.33 38.1617 105.635 38.1617C105.876 38.1617 106.113 38.2149 106.347 38.3212C106.581 38.4276 106.79 38.58 106.975 38.7785C107.159 38.977 107.304 39.2144 107.411 39.4909C107.524 39.7674 107.581 40.0758 107.581 40.416H104.55ZM106.571 40.2991C106.556 39.8241 106.532 39.4342 106.496 39.1294C106.461 38.8245 106.361 38.6012 106.198 38.4595C106.057 38.3389 105.851 38.2787 105.582 38.2787C105.333 38.2787 105.142 38.3319 105.007 38.4382C104.873 38.5374 104.77 38.6792 104.699 38.8635C104.642 39.0053 104.607 39.1648 104.593 39.342C104.578 39.5193 104.568 39.6894 104.561 39.8525L104.55 40.2991H106.571ZM112.875 39.0868C113.031 38.8033 113.215 38.58 113.428 38.4169C113.641 38.2468 113.935 38.1617 114.311 38.1617C114.828 38.1617 115.257 38.3177 115.597 38.6296C115.767 38.7856 115.895 38.984 115.98 39.2251C116.072 39.4661 116.118 39.7674 116.118 40.1289V42.8724L116.884 42.883V43H114.311V42.883H115.055V39.6717C115.055 39.3952 115.034 39.1684 114.991 38.9911C114.949 38.8068 114.888 38.6615 114.81 38.5552C114.74 38.4488 114.647 38.3779 114.534 38.3425C114.42 38.3 114.296 38.2787 114.162 38.2787C113.892 38.2787 113.658 38.3602 113.46 38.5233C113.261 38.6792 113.088 38.9238 112.939 39.257C112.989 39.4058 113.02 39.5653 113.035 39.7355C113.049 39.8985 113.056 40.0403 113.056 40.1608V42.883H113.821V43H111.248V42.883H111.992V39.7674C111.992 39.1932 111.925 38.8033 111.79 38.5977C111.656 38.385 111.454 38.2787 111.184 38.2787C110.816 38.2787 110.525 38.4488 110.312 38.7891C110.206 38.9521 110.125 39.1365 110.068 39.342C110.018 39.5476 109.993 39.7568 109.993 39.9694V42.883H110.738V43H108.164V42.883H108.93V38.4807H108.164V38.3638H109.993V39.1719C110.234 38.4984 110.66 38.1617 111.269 38.1617C111.631 38.1617 111.953 38.2432 112.237 38.4063C112.521 38.5693 112.733 38.7962 112.875 39.0868ZM118.725 40.416V40.8626C118.725 41.1675 118.732 41.4546 118.746 41.724C118.767 41.9934 118.813 42.2308 118.884 42.4364C118.962 42.6349 119.079 42.7944 119.235 42.9149C119.391 43.0284 119.607 43.0851 119.884 43.0851C120.274 43.0851 120.621 42.9894 120.926 42.798C121.238 42.6066 121.468 42.3514 121.617 42.0323L121.723 42.0749C121.575 42.4293 121.33 42.7058 120.99 42.9043C120.657 43.1028 120.288 43.202 119.884 43.202C119.551 43.202 119.239 43.1418 118.948 43.0213C118.665 42.9078 118.416 42.7483 118.204 42.5428C117.998 42.3301 117.835 42.0784 117.715 41.7878C117.594 41.49 117.534 41.1639 117.534 40.8095C117.534 40.455 117.594 40.1183 117.715 39.7993C117.842 39.4732 118.009 39.1896 118.214 38.9486C118.427 38.7076 118.668 38.5162 118.937 38.3744C119.214 38.2326 119.505 38.1617 119.809 38.1617C120.05 38.1617 120.288 38.2149 120.522 38.3212C120.756 38.4276 120.965 38.58 121.149 38.7785C121.334 38.977 121.479 39.2144 121.585 39.4909C121.699 39.7674 121.755 40.0758 121.755 40.416H118.725ZM120.745 40.2991C120.731 39.8241 120.706 39.4342 120.671 39.1294C120.635 38.8245 120.536 38.6012 120.373 38.4595C120.231 38.3389 120.026 38.2787 119.756 38.2787C119.508 38.2787 119.317 38.3319 119.182 38.4382C119.047 38.5374 118.945 38.6792 118.874 38.8635C118.817 39.0053 118.782 39.1648 118.767 39.342C118.753 39.5193 118.743 39.6894 118.735 39.8525L118.725 40.2991H120.745ZM127.284 42.883H128.049V43H125.476V42.883H126.22V39.7674C126.22 39.1932 126.153 38.8033 126.018 38.5977C125.884 38.385 125.682 38.2787 125.412 38.2787C125.044 38.2787 124.753 38.4488 124.54 38.7891C124.328 39.1223 124.221 39.5086 124.221 39.9482V42.883H124.966V43H122.392V42.883H123.158V38.4807H122.392V38.3638H124.221V39.1719C124.469 38.4984 124.898 38.1617 125.508 38.1617C125.99 38.1617 126.383 38.2858 126.688 38.5339C126.88 38.6969 127.025 38.9132 127.124 39.1825C127.231 39.4519 127.284 39.778 127.284 40.1608V42.883ZM130.45 38.3638H131.513V38.4807H130.45V42.5959C130.45 42.7519 130.471 42.8653 130.514 42.9362C130.556 43 130.638 43.0319 130.758 43.0319C130.922 43.0319 131.07 42.9716 131.205 42.8511C131.34 42.7306 131.439 42.5605 131.503 42.3407L131.62 42.3726C131.542 42.6845 131.396 42.9008 131.184 43.0213C130.971 43.1418 130.748 43.202 130.514 43.202C130.103 43.202 129.812 43.0815 129.642 42.8405C129.472 42.5924 129.387 42.2308 129.387 41.7559V38.4807H128.568V38.3638H129.387V37.0133C129.422 37.0204 129.454 37.0275 129.482 37.0346C129.518 37.0346 129.553 37.0346 129.589 37.0346C129.809 37.0204 129.986 36.953 130.12 36.8325C130.255 36.712 130.365 36.5844 130.45 36.4497V38.3638Z" fill="black"/>
<line x1="28.0764" y1="35" x2="28.0764" y2="42.6583" stroke="black" stroke-width="0.0903237"/>
<line x1="70.0764" y1="35" x2="70.0764" y2="42.6583" stroke="black" stroke-width="0.0903237"/>
</svg>
