<svg width="134" height="48" viewBox="0 0 134 48" fill="none" xmlns="http://www.w3.org/2000/svg">
<path d="M0.00184478 29V28.5883H2.5895L10.5289 7.53419H11.2346L19.2329 28.5883H21.8499V29H12.7931V28.5883H16.0571L12.9695 20.4137H6.14754L3.05999 28.5883H6.32397V29H0.00184478ZM12.7931 20.002L9.55854 11.4451L6.32397 20.002H12.7931ZM42.814 21.09V21.5017H40.4616V28.1767H40.1087C39.6971 27.7356 39.5206 27.618 38.9325 27.618C37.5211 27.618 36.2566 29.4411 32.5516 29.4411C29.7875 29.4411 27.7291 28.5589 25.7296 26.5594C23.7888 24.6186 22.3186 21.9133 22.3186 18.5906C22.3186 14.0916 24.671 11.5333 25.7002 10.5041C27.4645 8.7398 29.7287 7.53419 32.6104 7.53419C35.6097 7.53419 36.1684 8.68099 37.6093 8.68099C38.3738 8.68099 38.6385 8.44575 38.9325 8.06348H39.3736V13.9445H39.0501C38.7267 11.9156 37.4917 7.94586 32.581 7.94586C26.7294 7.94586 25.7002 13.3858 25.7002 18.5906C25.7002 22.1486 26.2001 25.736 28.2878 27.618C29.464 28.6765 30.552 29.0294 32.5516 29.0294C34.9922 29.0294 37.6387 27.4415 37.6387 23.9717V21.5017H33.8454V21.09H42.814ZM43.3403 29V28.5883H46.6043V8.47516H43.3403V8.06348H49.9565L55.3965 23.8835H55.4553L60.8952 8.06348H67.3938V8.47516H64.1298V28.5883H67.3938V29H57.9253V28.5883H61.1893V8.65159H61.1305L54.1026 29.0294L47.1042 8.85742H47.0454V28.5883H50.3093V29H43.3403Z" fill="#E5E3E3"/>
<path d="M76.5674 22H75.1971L74.134 20.4644H74.071H72.9606V22H71.6849V16.4875H74.071C75.5436 16.4875 76.465 17.2514 76.465 18.4877C76.465 19.3146 76.0476 19.921 75.331 20.2281L76.5674 22ZM75.1735 18.4877C75.1735 17.8814 74.7798 17.527 74.0001 17.527H72.9606V19.4485H74.0001C74.7798 19.4485 75.1735 19.0862 75.1735 18.4877ZM79.3737 20.9762H82.3741V22H78.1058V16.4875H82.2717V17.5112H79.3737V18.7082H81.933V19.7005H79.3737V20.9762ZM88.1378 22L87.6495 20.8187H85.0901L84.6019 22H83.2946L85.7516 16.4875H87.0116L89.4765 22H88.1378ZM85.4996 19.8501H87.2479L86.3738 17.7396L85.4996 19.8501ZM90.6784 22V16.4875H91.9542V20.9605H94.7183V22H90.6784ZM100.189 20.9762H103.19V22H98.9214V16.4875H103.087V17.5112H100.189V18.7082H102.749V19.7005H100.189V20.9762ZM106.646 22.0945C105.772 22.0945 104.89 21.8346 104.402 21.4566L104.835 20.4959C105.299 20.8345 105.992 21.0707 106.654 21.0707C107.41 21.0707 107.717 20.8187 107.717 20.4801C107.717 19.4485 104.512 20.1572 104.512 18.1097C104.512 17.1726 105.268 16.393 106.835 16.393C107.528 16.393 108.237 16.5584 108.749 16.8812L108.355 17.8499C107.843 17.5585 107.315 17.4167 106.827 17.4167C106.071 17.4167 105.78 17.7002 105.78 18.0467C105.78 19.0626 108.985 18.3617 108.985 20.3856C108.985 21.307 108.221 22.0945 106.646 22.0945ZM111.552 22V17.527H109.788V16.4875H114.591V17.527H112.827V22H111.552ZM119.75 22L119.261 20.8187H116.702L116.214 22H114.906L117.363 16.4875H118.623L121.088 22H119.75ZM117.111 19.8501H118.86L117.986 17.7396L117.111 19.8501ZM123.155 22V17.527H121.391V16.4875H126.195V17.527H124.431V22H123.155ZM128.779 20.9762H131.78V22H127.511V16.4875H131.677V17.5112H128.779V18.7082H131.339V19.7005H128.779V20.9762Z" fill="#E5E3E3"/>
<path d="M4.82571 34.8097H4.91078L8.00515 42.551H8.77077V42.668H5.55943V42.551H6.58025L5.54879 39.882H2.94356L1.90147 42.551H2.81596V42.668H0.997615V42.551H1.7526L4.82571 34.8097ZM2.99673 39.765H5.49563L4.24086 36.6068L2.99673 39.765ZM11.616 38.0955C11.6869 38.0955 11.7436 38.0743 11.7861 38.0317H11.8712V39.1482H11.7861C11.7153 38.7442 11.5699 38.4429 11.3502 38.2444C11.1375 38.0459 10.8823 37.9467 10.5845 37.9467C10.3506 37.9467 10.1486 38.0069 9.97843 38.1274C9.8083 38.2479 9.72323 38.4323 9.72323 38.6804C9.72323 38.8789 9.7764 39.049 9.88273 39.1908C9.99616 39.3326 10.1557 39.4602 10.3612 39.5736C10.581 39.7154 10.7972 39.8359 11.0099 39.9351C11.2297 40.0344 11.453 40.1549 11.6798 40.2967C11.8996 40.4314 12.0662 40.5732 12.1796 40.722C12.293 40.8638 12.3497 41.0552 12.3497 41.2962C12.3497 41.4947 12.3036 41.6932 12.2115 41.8917C12.1193 42.0831 11.9811 42.2568 11.7968 42.4128C11.6125 42.5687 11.4069 42.6821 11.18 42.753C10.9603 42.831 10.737 42.87 10.5101 42.87C10.262 42.87 9.98907 42.8133 9.69133 42.6999C9.39359 42.5935 9.21281 42.5404 9.14901 42.5404C9.03559 42.5404 8.95761 42.5829 8.91507 42.668H8.83001V41.1261H8.91507C9.02141 41.6578 9.22345 42.0619 9.52119 42.3383C9.81893 42.6148 10.1627 42.753 10.5526 42.753C10.9355 42.753 11.219 42.6644 11.4033 42.4872C11.5877 42.31 11.6798 42.1079 11.6798 41.8811C11.6798 41.6968 11.616 41.5408 11.4884 41.4132C11.3608 41.2856 11.1729 41.1615 10.9248 41.041C10.6767 40.9205 10.4463 40.8071 10.2336 40.7008C10.021 40.5944 9.82602 40.481 9.64879 40.3605C9.30852 40.1195 9.13838 39.7437 9.13838 39.2333C9.13838 38.8292 9.27662 38.4925 9.55309 38.2231C9.69487 38.0884 9.85083 37.9892 10.021 37.9254C10.1982 37.8616 10.379 37.8297 10.5633 37.8297C10.6909 37.8297 10.8079 37.8439 10.9142 37.8722C11.0205 37.9006 11.1162 37.9325 11.2013 37.9679C11.2864 37.9963 11.3608 38.0246 11.4246 38.053C11.4955 38.0813 11.5593 38.0955 11.616 38.0955ZM15.749 38.0955C15.8199 38.0955 15.8766 38.0743 15.9191 38.0317H16.0042V39.1482H15.9191C15.8482 38.7442 15.7029 38.4429 15.4831 38.2444C15.2705 38.0459 15.0153 37.9467 14.7175 37.9467C14.4836 37.9467 14.2816 38.0069 14.1114 38.1274C13.9413 38.2479 13.8562 38.4323 13.8562 38.6804C13.8562 38.8789 13.9094 39.049 14.0157 39.1908C14.1291 39.3326 14.2886 39.4602 14.4942 39.5736C14.714 39.7154 14.9302 39.8359 15.1429 39.9351C15.3626 40.0344 15.5859 40.1549 15.8128 40.2967C16.0325 40.4314 16.1991 40.5732 16.3126 40.722C16.426 40.8638 16.4827 41.0552 16.4827 41.2962C16.4827 41.4947 16.4366 41.6932 16.3445 41.8917C16.2523 42.0831 16.1141 42.2568 15.9298 42.4128C15.7454 42.5687 15.5399 42.6821 15.313 42.753C15.0932 42.831 14.8699 42.87 14.6431 42.87C14.395 42.87 14.122 42.8133 13.8243 42.6999C13.5266 42.5935 13.3458 42.5404 13.282 42.5404C13.1686 42.5404 13.0906 42.5829 13.0481 42.668H12.963V41.1261H13.0481C13.1544 41.6578 13.3564 42.0619 13.6542 42.3383C13.9519 42.6148 14.2957 42.753 14.6856 42.753C15.0684 42.753 15.352 42.6644 15.5363 42.4872C15.7206 42.31 15.8128 42.1079 15.8128 41.8811C15.8128 41.6968 15.749 41.5408 15.6214 41.4132C15.4938 41.2856 15.3059 41.1615 15.0578 41.041C14.8097 40.9205 14.5793 40.8071 14.3666 40.7008C14.1539 40.5944 13.959 40.481 13.7818 40.3605C13.4415 40.1195 13.2714 39.7437 13.2714 39.2333C13.2714 38.8292 13.4096 38.4925 13.6861 38.2231C13.8279 38.0884 13.9838 37.9892 14.1539 37.9254C14.3312 37.8616 14.5119 37.8297 14.6963 37.8297C14.8239 37.8297 14.9408 37.8439 15.0472 37.8722C15.1535 37.9006 15.2492 37.9325 15.3343 37.9679C15.4193 37.9963 15.4938 38.0246 15.5576 38.053C15.6285 38.0813 15.6923 38.0955 15.749 38.0955ZM18.4358 40.084V40.5306C18.4358 40.8354 18.4429 41.1226 18.4571 41.3919C18.4783 41.6613 18.5244 41.8988 18.5953 42.1044C18.6733 42.3029 18.7903 42.4624 18.9462 42.5829C19.1022 42.6963 19.3184 42.753 19.5949 42.753C19.9848 42.753 20.3321 42.6573 20.637 42.4659C20.9489 42.2745 21.1793 42.0193 21.3281 41.7003L21.4345 41.7428C21.2856 42.0973 21.041 42.3738 20.7008 42.5723C20.3676 42.7708 19.9989 42.87 19.5949 42.87C19.2617 42.87 18.9498 42.8098 18.6591 42.6892C18.3755 42.5758 18.1274 42.4163 17.9148 42.2107C17.7092 41.9981 17.5461 41.7464 17.4256 41.4557C17.3051 41.158 17.2448 40.8319 17.2448 40.4774C17.2448 40.123 17.3051 39.7863 17.4256 39.4673C17.5532 39.1412 17.7198 38.8576 17.9254 38.6166C18.1381 38.3755 18.3791 38.1841 18.6485 38.0424C18.9249 37.9006 19.2156 37.8297 19.5204 37.8297C19.7615 37.8297 19.9989 37.8829 20.2329 37.9892C20.4668 38.0955 20.6759 38.2479 20.8603 38.4464C21.0446 38.6449 21.1899 38.8824 21.2962 39.1589C21.4097 39.4354 21.4664 39.7437 21.4664 40.084H18.4358ZM20.4562 39.967C20.442 39.4921 20.4172 39.1022 20.3817 38.7973C20.3463 38.4925 20.2471 38.2692 20.084 38.1274C19.9422 38.0069 19.7366 37.9467 19.4673 37.9467C19.2191 37.9467 19.0277 37.9998 18.893 38.1062C18.7583 38.2054 18.6556 38.3472 18.5847 38.5315C18.528 38.6733 18.4925 38.8328 18.4783 39.01C18.4642 39.1872 18.4535 39.3574 18.4464 39.5204L18.4358 39.967H20.4562ZM23.8578 38.0317H24.9211V38.1487H23.8578V42.2639C23.8578 42.4199 23.879 42.5333 23.9216 42.6042C23.9641 42.668 24.0456 42.6999 24.1661 42.6999C24.3292 42.6999 24.4781 42.6396 24.6128 42.5191C24.7474 42.3986 24.8467 42.2284 24.9105 42.0087L25.0275 42.0406C24.9495 42.3525 24.8042 42.5687 24.5915 42.6892C24.3788 42.8098 24.1555 42.87 23.9216 42.87C23.5104 42.87 23.2198 42.7495 23.0496 42.5085C22.8795 42.2603 22.7944 41.8988 22.7944 41.4238V38.1487H21.9756V38.0317H22.7944V36.6813C22.8299 36.6883 22.8618 36.6954 22.8901 36.7025C22.9256 36.7025 22.961 36.7025 22.9964 36.7025C23.2162 36.6883 23.3934 36.621 23.5281 36.5005C23.6628 36.38 23.7727 36.2524 23.8578 36.1177V38.0317ZM36.4906 35.3733C36.5685 35.3733 36.6288 35.3591 36.6713 35.3308C36.7139 35.3024 36.7599 35.2493 36.8096 35.1713H36.8946V37.3831H36.8096C36.6253 36.5891 36.3488 35.9972 35.9801 35.6073C35.6115 35.2174 35.1614 35.0224 34.6297 35.0224C33.9562 35.0224 33.4564 35.2705 33.1303 35.7668C32.8113 36.2559 32.6518 37.3228 32.6518 38.9675C32.6518 39.485 32.6625 39.9139 32.6837 40.2541C32.705 40.5873 32.7334 40.8673 32.7688 41.0942C32.8113 41.314 32.861 41.4947 32.9177 41.6365C32.9744 41.7783 33.0382 41.913 33.1091 42.0406C33.3714 42.5085 33.8782 42.7424 34.6297 42.7424C34.892 42.7424 35.1224 42.7211 35.3209 42.6786C35.5194 42.6432 35.686 42.5758 35.8206 42.4766C35.9624 42.3773 36.0688 42.2426 36.1397 42.0725C36.2105 41.9023 36.246 41.6826 36.246 41.4132V39.8713H35.0657V39.7544H38.5322V39.8713H37.5646V42.668H37.4795C37.444 42.5616 37.3873 42.4766 37.3093 42.4128C37.2314 42.349 37.125 42.3171 36.9903 42.3171C36.8911 42.3171 36.7777 42.3419 36.6501 42.3915C36.5296 42.434 36.37 42.4978 36.1716 42.5829C35.9731 42.668 35.7533 42.7353 35.5123 42.7849C35.2712 42.8346 35.0019 42.8594 34.7041 42.8594C34.1937 42.8594 33.7152 42.7708 33.2686 42.5935C32.8291 42.4163 32.4463 42.1469 32.1202 41.7854C31.468 41.0765 31.1419 40.162 31.1419 39.0419C31.1419 38.4677 31.2305 37.936 31.4077 37.4469C31.592 36.9506 31.8649 36.5005 32.2265 36.0964C32.5951 35.6923 32.985 35.3946 33.3962 35.2032C33.8144 35.0047 34.2221 34.9054 34.619 34.9054C34.8246 34.9054 35.016 34.9303 35.1933 34.9799C35.3776 35.0295 35.5442 35.0827 35.693 35.1394C35.849 35.1961 35.9908 35.2493 36.1184 35.2989C36.2531 35.3485 36.3771 35.3733 36.4906 35.3733ZM42.8791 38.6591C42.8791 38.7725 42.833 38.8753 42.7409 38.9675C42.6558 39.0525 42.514 39.0951 42.3155 39.0951C42.1525 39.0951 42.0213 39.0596 41.9221 38.9887C41.8299 38.9179 41.7839 38.8257 41.7839 38.7123C41.7839 38.6485 41.7909 38.5776 41.8051 38.4996C41.8193 38.4145 41.8264 38.3401 41.8264 38.2763C41.8264 38.1203 41.7413 38.0424 41.5712 38.0424C41.3514 38.0424 41.1777 38.1877 41.0501 38.4783C40.9225 38.7619 40.8587 39.1199 40.8587 39.5523V42.551H41.6243V42.668H39.0297V42.551H39.7954V38.1487H39.0297V38.0317H40.8587V38.6485C41.036 38.1026 41.3798 37.8297 41.8902 37.8297C42.0461 37.8297 42.1844 37.8545 42.3049 37.9041C42.4254 37.9537 42.5282 38.0211 42.6133 38.1062C42.6983 38.1841 42.7621 38.2727 42.8047 38.372C42.8543 38.4712 42.8791 38.5669 42.8791 38.6591ZM48.1664 40.3498C48.1664 40.7752 48.0707 41.1651 47.8793 41.5195C47.6879 41.874 47.4433 42.1646 47.1456 42.3915C46.9471 42.5404 46.7344 42.6573 46.5076 42.7424C46.2807 42.8275 46.0539 42.87 45.827 42.87C45.5364 42.87 45.2493 42.8027 44.9657 42.668C44.6892 42.5404 44.4411 42.3631 44.2214 42.1363C44.0016 41.9094 43.8208 41.6436 43.679 41.3388C43.5443 41.0339 43.477 40.7043 43.477 40.3498C43.477 39.9954 43.5479 39.6658 43.6897 39.3609C43.8315 39.0561 44.0122 38.7903 44.232 38.5634C44.4588 38.3366 44.7105 38.1593 44.987 38.0317C45.2705 37.897 45.5506 37.8297 45.827 37.8297C46.1106 37.8297 46.3906 37.8935 46.6671 38.0211C46.9506 38.1487 47.2023 38.3259 47.4221 38.5528C47.6489 38.7796 47.8297 39.049 47.9644 39.3609C48.0991 39.6658 48.1664 39.9954 48.1664 40.3498ZM45.1252 38.1487C45.0401 38.2196 44.9692 38.3117 44.9125 38.4252C44.8558 38.5386 44.8097 38.6556 44.7743 38.7761C44.7459 38.8895 44.7247 39.0029 44.7105 39.1163C44.6963 39.2227 44.6892 39.3113 44.6892 39.3822C44.6751 39.6019 44.668 39.8217 44.668 40.0415C44.668 40.2541 44.668 40.4704 44.668 40.6901C44.668 40.9453 44.6786 41.1934 44.6999 41.4345C44.7353 41.8811 44.831 42.2143 44.987 42.434C45.15 42.6467 45.43 42.753 45.827 42.753C46.061 42.753 46.2524 42.714 46.4012 42.6361C46.5501 42.5581 46.6671 42.4376 46.7521 42.2745C46.7805 42.2178 46.8089 42.1469 46.8372 42.0619C46.8656 41.9697 46.8868 41.8775 46.901 41.7854C46.9152 41.6932 46.9258 41.6046 46.9329 41.5195C46.9471 41.4345 46.9542 41.3707 46.9542 41.3281L46.9755 40.3392C46.9755 40.2967 46.9755 40.2364 46.9755 40.1584C46.9755 40.0734 46.9755 39.9848 46.9755 39.8926C46.9755 39.7934 46.9719 39.6941 46.9648 39.5949C46.9648 39.4956 46.9613 39.4035 46.9542 39.3184C46.94 39.0632 46.9081 38.8576 46.8585 38.7016C46.8159 38.5386 46.7663 38.4181 46.7096 38.3401C46.6104 38.1912 46.4863 38.0884 46.3374 38.0317C46.1957 37.975 46.022 37.9467 45.8164 37.9467C45.7171 37.9467 45.6002 37.9608 45.4655 37.9892C45.3379 38.0175 45.2245 38.0707 45.1252 38.1487ZM51.1581 38.0317V38.1487H50.233L51.6898 41.477L52.7319 38.6804L52.5086 38.1487H51.9237V38.0317H54.6353V38.1487H53.6995L55.167 41.477L56.4111 38.1487H55.6774V38.0317H57.1342V38.1487H56.5387L54.7629 42.9551H54.6778L52.817 38.8505L51.2751 42.9551H51.19L49.042 38.1487H48.4784V38.0317H51.1581ZM59.1854 38.0317H60.2488V38.1487H59.1854V42.2639C59.1854 42.4199 59.2067 42.5333 59.2492 42.6042C59.2917 42.668 59.3733 42.6999 59.4938 42.6999C59.6568 42.6999 59.8057 42.6396 59.9404 42.5191C60.0751 42.3986 60.1743 42.2284 60.2381 42.0087L60.3551 42.0406C60.2771 42.3525 60.1318 42.5687 59.9191 42.6892C59.7064 42.8098 59.4831 42.87 59.2492 42.87C58.838 42.87 58.5474 42.7495 58.3772 42.5085C58.2071 42.2603 58.122 41.8988 58.122 41.4238V38.1487H57.3033V38.0317H58.122V36.6813C58.1575 36.6883 58.1894 36.6954 58.2177 36.7025C58.2532 36.7025 58.2886 36.7025 58.3241 36.7025C58.5438 36.6883 58.7211 36.621 58.8558 36.5005C58.9904 36.38 59.1003 36.2524 59.1854 36.1177V38.0317ZM62.614 34.8416V38.8399C62.8621 38.1664 63.291 37.8297 63.9007 37.8297C64.4607 37.8297 64.8967 37.9927 65.2086 38.3188C65.5205 38.6449 65.6765 39.1518 65.6765 39.8394V42.551H66.4421V42.668H63.8687V42.551H64.6131V39.4354C64.6131 38.8753 64.5493 38.489 64.4217 38.2763C64.2941 38.0565 64.0885 37.9467 63.8049 37.9467C63.4363 37.9467 63.1457 38.1168 62.933 38.4571C62.7203 38.7903 62.614 39.1695 62.614 39.5949V42.551H63.3583V42.668H60.785V42.551H61.5506V34.9586H60.785V34.8416H62.614ZM75.0165 35.0968L76.686 40.5944L78.6638 35.0968H81.0457V35.2138H80.0781V42.551H81.0457V42.668H77.8025V42.551H78.7595V35.2138L76.048 42.753H75.9523L73.6873 35.2138V42.551H74.6869V42.668H72.6027V42.551H73.5703V35.2138H72.6027V35.0968H75.0165ZM85.5982 42.0406C85.5982 42.2533 85.6159 42.4057 85.6513 42.4978C85.6939 42.59 85.7648 42.6361 85.864 42.6361C85.9633 42.6361 86.0412 42.6042 86.0979 42.5404C86.1547 42.4695 86.2043 42.395 86.2468 42.3171L86.3638 42.3702C86.2716 42.5475 86.1724 42.6609 86.066 42.7105C85.9668 42.7601 85.8321 42.7849 85.662 42.7849C85.4209 42.7849 85.2189 42.7424 85.0559 42.6573C84.8999 42.5652 84.7758 42.4411 84.6837 42.2852C84.5348 42.4837 84.3753 42.629 84.2052 42.7211C84.0421 42.8204 83.8153 42.87 83.5246 42.87C83.2907 42.87 83.0709 42.8381 82.8653 42.7743C82.6668 42.7176 82.4932 42.6361 82.3443 42.5297C82.1954 42.4234 82.0784 42.2993 81.9934 42.1576C81.9083 42.0087 81.8658 41.8456 81.8658 41.6684C81.8658 41.4912 81.8941 41.3423 81.9508 41.2218C82.0146 41.0942 82.1068 40.9879 82.2273 40.9028C82.3549 40.8106 82.5109 40.7327 82.6952 40.6689C82.8866 40.6051 83.1099 40.5412 83.3651 40.4774C83.7054 40.3924 83.9535 40.2931 84.1095 40.1797C84.2654 40.0592 84.3788 39.9245 84.4497 39.7756C84.4852 39.6977 84.5135 39.609 84.5348 39.5098C84.5632 39.4105 84.5773 39.29 84.5773 39.1482C84.5773 38.886 84.5632 38.6804 84.5348 38.5315C84.5065 38.3755 84.4604 38.255 84.3966 38.17C84.3328 38.0849 84.2548 38.0282 84.1626 37.9998C84.0705 37.9644 83.9712 37.9467 83.8649 37.9467C83.6948 37.9467 83.5813 37.9821 83.5246 38.053C83.4679 38.1168 83.4395 38.2089 83.4395 38.3295L83.4714 38.7229C83.4714 38.9568 83.3049 39.0738 82.9717 39.0738C82.8086 39.0738 82.6739 39.049 82.5676 38.9994C82.4613 38.9498 82.4081 38.8647 82.4081 38.7442C82.4081 38.6378 82.4435 38.5315 82.5144 38.4252C82.5853 38.3117 82.681 38.2125 82.8015 38.1274C82.9291 38.0353 83.078 37.9644 83.2481 37.9148C83.4183 37.858 83.6061 37.8297 83.8117 37.8297C84.3718 37.8297 84.8077 38.0246 85.1197 38.4145C85.4387 38.8044 85.5982 39.3432 85.5982 40.0308V42.0406ZM84.5348 39.8926C84.4568 40.0273 84.354 40.1443 84.2264 40.2435C84.0988 40.3428 83.9464 40.4314 83.7692 40.5093C83.5991 40.5873 83.4608 40.6582 83.3545 40.722C83.2552 40.7787 83.1737 40.8496 83.1099 40.9347C83.0532 41.0127 83.0142 41.1119 82.9929 41.2324C82.9717 41.3529 82.961 41.5054 82.961 41.6897C82.961 42.0867 83.0142 42.3596 83.1205 42.5085C83.2269 42.6502 83.4041 42.7211 83.6522 42.7211C83.8932 42.7211 84.0847 42.6715 84.2264 42.5723C84.3682 42.4659 84.4958 42.3277 84.6092 42.1576C84.5596 42.0016 84.5348 41.8279 84.5348 41.6365V39.8926ZM91.8555 42.551H92.6211V42.668H90.0477V42.551H90.7921V39.4354C90.7921 38.8611 90.7247 38.4712 90.5901 38.2657C90.4554 38.053 90.2533 37.9467 89.9839 37.9467C89.6153 37.9467 89.3247 38.1168 89.112 38.4571C88.8993 38.7903 88.793 39.1766 88.793 39.6161V42.551H89.5373V42.668H86.964V42.551H87.7296V38.1487H86.964V38.0317H88.793V38.8399C89.0411 38.1664 89.47 37.8297 90.0796 37.8297C90.5617 37.8297 90.9551 37.9537 91.26 38.2019C91.4514 38.3649 91.5967 38.5811 91.6959 38.8505C91.8023 39.1199 91.8555 39.446 91.8555 39.8288V42.551ZM97.021 42.0406C97.021 42.2533 97.0387 42.4057 97.0741 42.4978C97.1167 42.59 97.1876 42.6361 97.2868 42.6361C97.3861 42.6361 97.464 42.6042 97.5208 42.5404C97.5775 42.4695 97.6271 42.395 97.6696 42.3171L97.7866 42.3702C97.6944 42.5475 97.5952 42.6609 97.4889 42.7105C97.3896 42.7601 97.2549 42.7849 97.0848 42.7849C96.8437 42.7849 96.6417 42.7424 96.4787 42.6573C96.3227 42.5652 96.1986 42.4411 96.1065 42.2852C95.9576 42.4837 95.7981 42.629 95.628 42.7211C95.4649 42.8204 95.2381 42.87 94.9474 42.87C94.7135 42.87 94.4937 42.8381 94.2881 42.7743C94.0896 42.7176 93.916 42.6361 93.7671 42.5297C93.6182 42.4234 93.5013 42.2993 93.4162 42.1576C93.3311 42.0087 93.2886 41.8456 93.2886 41.6684C93.2886 41.4912 93.3169 41.3423 93.3736 41.2218C93.4375 41.0942 93.5296 40.9879 93.6501 40.9028C93.7777 40.8106 93.9337 40.7327 94.118 40.6689C94.3094 40.6051 94.5327 40.5412 94.7879 40.4774C95.1282 40.3924 95.3763 40.2931 95.5323 40.1797C95.6882 40.0592 95.8017 39.9245 95.8725 39.7756C95.908 39.6977 95.9363 39.609 95.9576 39.5098C95.986 39.4105 96.0001 39.29 96.0001 39.1482C96.0001 38.886 95.986 38.6804 95.9576 38.5315C95.9293 38.3755 95.8832 38.255 95.8194 38.17C95.7556 38.0849 95.6776 38.0282 95.5854 37.9998C95.4933 37.9644 95.394 37.9467 95.2877 37.9467C95.1176 37.9467 95.0041 37.9821 94.9474 38.053C94.8907 38.1168 94.8624 38.2089 94.8624 38.3295L94.8943 38.7229C94.8943 38.9568 94.7277 39.0738 94.3945 39.0738C94.2314 39.0738 94.0967 39.049 93.9904 38.9994C93.8841 38.9498 93.8309 38.8647 93.8309 38.7442C93.8309 38.6378 93.8663 38.5315 93.9372 38.4252C94.0081 38.3117 94.1038 38.2125 94.2243 38.1274C94.3519 38.0353 94.5008 37.9644 94.6709 37.9148C94.8411 37.858 95.0289 37.8297 95.2345 37.8297C95.7946 37.8297 96.2305 38.0246 96.5425 38.4145C96.8615 38.8044 97.021 39.3432 97.021 40.0308V42.0406ZM95.9576 39.8926C95.8796 40.0273 95.7768 40.1443 95.6492 40.2435C95.5216 40.3428 95.3692 40.4314 95.192 40.5093C95.0219 40.5873 94.8836 40.6582 94.7773 40.722C94.678 40.7787 94.5965 40.8496 94.5327 40.9347C94.476 41.0127 94.437 41.1119 94.4157 41.2324C94.3945 41.3529 94.3838 41.5054 94.3838 41.6897C94.3838 42.0867 94.437 42.3596 94.5433 42.5085C94.6497 42.6502 94.8269 42.7211 95.075 42.7211C95.3161 42.7211 95.5075 42.6715 95.6492 42.5723C95.791 42.4659 95.9186 42.3277 96.032 42.1576C95.9824 42.0016 95.9576 41.8279 95.9576 41.6365V39.8926ZM101.832 38.489C101.917 38.3826 102.002 38.2976 102.087 38.2338C102.179 38.1629 102.304 38.1274 102.459 38.1274C102.644 38.1274 102.782 38.177 102.874 38.2763C102.973 38.3755 103.023 38.4854 103.023 38.6059C103.023 38.6768 102.998 38.7406 102.949 38.7973C102.899 38.847 102.814 38.8718 102.693 38.8718C102.509 38.8718 102.403 38.7832 102.374 38.6059C102.346 38.4287 102.289 38.3401 102.204 38.3401C102.148 38.3401 102.098 38.3614 102.055 38.4039C102.02 38.4464 101.967 38.5067 101.896 38.5847C101.988 38.7406 102.055 38.8895 102.098 39.0313C102.14 39.166 102.162 39.3326 102.162 39.5311C102.162 39.9564 102.006 40.3321 101.694 40.6582C101.382 40.9772 100.978 41.1367 100.482 41.1367C100.297 41.1367 100.099 41.1048 99.8862 41.041C99.6735 40.9701 99.4573 40.839 99.2375 40.6476C99.2021 40.6759 99.156 40.7078 99.0993 40.7433C99.0426 40.7716 98.9858 40.8106 98.9291 40.8603C98.8795 40.9099 98.837 40.9701 98.8015 41.041C98.7661 41.1048 98.7484 41.1828 98.7484 41.275C98.7484 41.6861 99.1064 41.8917 99.8223 41.8917C99.9287 41.8917 100.138 41.8811 100.45 41.8598C100.613 41.8456 100.744 41.835 100.843 41.8279C100.95 41.8208 101.027 41.8173 101.077 41.8173C101.361 41.8173 101.612 41.8634 101.832 41.9555C102.052 42.0477 102.236 42.1753 102.385 42.3383C102.534 42.4943 102.644 42.6786 102.715 42.8913C102.793 43.1039 102.832 43.3308 102.832 43.5718C102.832 44.1319 102.626 44.5962 102.215 44.9648C102.009 45.1562 101.772 45.298 101.502 45.3902C101.24 45.4823 100.96 45.5284 100.662 45.5284C100.421 45.5284 100.17 45.493 99.9074 45.4221C99.6522 45.3583 99.4218 45.2555 99.2162 45.1137C98.798 44.8372 98.5889 44.5005 98.5889 44.1035C98.5889 43.8554 98.6739 43.6392 98.8441 43.4549C99.0142 43.2776 99.28 43.0862 99.6416 42.8806C99.2942 42.8452 99.0107 42.7282 98.7909 42.5297C98.5711 42.3241 98.4612 42.0406 98.4612 41.679C98.4612 41.438 98.5144 41.2218 98.6208 41.0304C98.7342 40.839 98.9079 40.683 99.1418 40.5625C99.0426 40.442 98.9504 40.3002 98.8653 40.1372C98.7873 39.967 98.7484 39.7685 98.7484 39.5417C98.7484 39.0384 98.9327 38.6272 99.3013 38.3082C99.4856 38.1451 99.677 38.0246 99.8755 37.9467C100.081 37.8687 100.283 37.8297 100.482 37.8297C100.716 37.8297 100.953 37.8829 101.194 37.9892C101.435 38.0955 101.648 38.2621 101.832 38.489ZM100.482 41.0198C100.652 41.0198 100.783 40.9949 100.875 40.9453C100.974 40.8886 101.052 40.7858 101.109 40.637C101.187 40.4101 101.226 40.0379 101.226 39.5204C101.226 39.0242 101.187 38.6378 101.109 38.3614C101.074 38.2196 101.01 38.1168 100.918 38.053C100.825 37.9821 100.673 37.9467 100.46 37.9467C100.297 37.9467 100.17 37.975 100.078 38.0317C99.9854 38.0813 99.911 38.1629 99.8542 38.2763C99.7408 38.4819 99.6841 38.9001 99.6841 39.5311C99.6841 40.0911 99.7302 40.4739 99.8223 40.6795C99.872 40.7858 99.9464 40.8709 100.046 40.9347C100.145 40.9914 100.29 41.0198 100.482 41.0198ZM99.7798 42.8806C99.6026 43.0366 99.4785 43.1961 99.4076 43.3592C99.3438 43.5293 99.3119 43.7242 99.3119 43.944C99.3119 44.3977 99.4254 44.7557 99.6522 45.018C99.8862 45.2803 100.237 45.4114 100.705 45.4114C101.18 45.4114 101.584 45.2874 101.917 45.0393C102.25 44.7911 102.417 44.465 102.417 44.061C102.417 43.6994 102.296 43.4017 102.055 43.1677C101.814 42.9338 101.478 42.8168 101.045 42.8168L99.7798 42.8806ZM104.761 40.084V40.5306C104.761 40.8354 104.768 41.1226 104.782 41.3919C104.804 41.6613 104.85 41.8988 104.921 42.1044C104.999 42.3029 105.116 42.4624 105.271 42.5829C105.427 42.6963 105.644 42.753 105.92 42.753C106.31 42.753 106.657 42.6573 106.962 42.4659C107.274 42.2745 107.505 42.0193 107.653 41.7003L107.76 41.7428C107.611 42.0973 107.366 42.3738 107.026 42.5723C106.693 42.7708 106.324 42.87 105.92 42.87C105.587 42.87 105.275 42.8098 104.984 42.6892C104.701 42.5758 104.453 42.4163 104.24 42.2107C104.034 41.9981 103.871 41.7464 103.751 41.4557C103.63 41.158 103.57 40.8319 103.57 40.4774C103.57 40.123 103.63 39.7863 103.751 39.4673C103.878 39.1412 104.045 38.8576 104.251 38.6166C104.463 38.3755 104.704 38.1841 104.974 38.0424C105.25 37.9006 105.541 37.8297 105.846 37.8297C106.087 37.8297 106.324 37.8829 106.558 37.9892C106.792 38.0955 107.001 38.2479 107.186 38.4464C107.37 38.6449 107.515 38.8824 107.622 39.1589C107.735 39.4354 107.792 39.7437 107.792 40.084H104.761ZM106.781 39.967C106.767 39.4921 106.742 39.1022 106.707 38.7973C106.672 38.4925 106.572 38.2692 106.409 38.1274C106.267 38.0069 106.062 37.9467 105.793 37.9467C105.544 37.9467 105.353 37.9998 105.218 38.1062C105.084 38.2054 104.981 38.3472 104.91 38.5315C104.853 38.6733 104.818 38.8328 104.804 39.01C104.789 39.1872 104.779 39.3574 104.772 39.5204L104.761 39.967H106.781ZM113.086 38.7548C113.242 38.4712 113.426 38.2479 113.639 38.0849C113.852 37.9148 114.146 37.8297 114.522 37.8297C115.039 37.8297 115.468 37.9856 115.808 38.2976C115.978 38.4535 116.106 38.652 116.191 38.893C116.283 39.1341 116.329 39.4354 116.329 39.7969V42.5404L117.095 42.551V42.668H114.522V42.551H115.266V39.3397C115.266 39.0632 115.245 38.8363 115.202 38.6591C115.16 38.4748 115.099 38.3295 115.021 38.2231C114.95 38.1168 114.858 38.0459 114.745 38.0105C114.631 37.9679 114.507 37.9467 114.373 37.9467C114.103 37.9467 113.869 38.0282 113.671 38.1912C113.472 38.3472 113.299 38.5918 113.15 38.9249C113.199 39.0738 113.231 39.2333 113.246 39.4035C113.26 39.5665 113.267 39.7083 113.267 39.8288V42.551H114.032V42.668H111.459V42.551H112.203V39.4354C112.203 38.8611 112.136 38.4712 112.001 38.2657C111.867 38.053 111.665 37.9467 111.395 37.9467C111.027 37.9467 110.736 38.1168 110.523 38.4571C110.417 38.6201 110.335 38.8044 110.279 39.01C110.229 39.2156 110.204 39.4247 110.204 39.6374V42.551H110.949V42.668H108.375V42.551H109.141V38.1487H108.375V38.0317H110.204V38.8399C110.445 38.1664 110.871 37.8297 111.48 37.8297C111.842 37.8297 112.164 37.9112 112.448 38.0743C112.732 38.2373 112.944 38.4642 113.086 38.7548ZM118.936 40.084V40.5306C118.936 40.8354 118.943 41.1226 118.957 41.3919C118.978 41.6613 119.024 41.8988 119.095 42.1044C119.173 42.3029 119.29 42.4624 119.446 42.5829C119.602 42.6963 119.818 42.753 120.095 42.753C120.485 42.753 120.832 42.6573 121.137 42.4659C121.449 42.2745 121.679 42.0193 121.828 41.7003L121.934 41.7428C121.786 42.0973 121.541 42.3738 121.201 42.5723C120.868 42.7708 120.499 42.87 120.095 42.87C119.762 42.87 119.45 42.8098 119.159 42.6892C118.875 42.5758 118.627 42.4163 118.415 42.2107C118.209 41.9981 118.046 41.7464 117.926 41.4557C117.805 41.158 117.745 40.8319 117.745 40.4774C117.745 40.123 117.805 39.7863 117.926 39.4673C118.053 39.1412 118.22 38.8576 118.425 38.6166C118.638 38.3755 118.879 38.1841 119.148 38.0424C119.425 37.9006 119.716 37.8297 120.02 37.8297C120.261 37.8297 120.499 37.8829 120.733 37.9892C120.967 38.0955 121.176 38.2479 121.36 38.4464C121.545 38.6449 121.69 38.8824 121.796 39.1589C121.91 39.4354 121.966 39.7437 121.966 40.084H118.936ZM120.956 39.967C120.942 39.4921 120.917 39.1022 120.882 38.7973C120.846 38.4925 120.747 38.2692 120.584 38.1274C120.442 38.0069 120.237 37.9467 119.967 37.9467C119.719 37.9467 119.528 37.9998 119.393 38.1062C119.258 38.2054 119.155 38.3472 119.085 38.5315C119.028 38.6733 118.992 38.8328 118.978 39.01C118.964 39.1872 118.953 39.3574 118.946 39.5204L118.936 39.967H120.956ZM127.495 42.551H128.26V42.668H125.687V42.551H126.431V39.4354C126.431 38.8611 126.364 38.4712 126.229 38.2657C126.095 38.053 125.892 37.9467 125.623 37.9467C125.254 37.9467 124.964 38.1168 124.751 38.4571C124.538 38.7903 124.432 39.1766 124.432 39.6161V42.551H125.176V42.668H122.603V42.551H123.369V38.1487H122.603V38.0317H124.432V38.8399C124.68 38.1664 125.109 37.8297 125.719 37.8297C126.201 37.8297 126.594 37.9537 126.899 38.2019C127.091 38.3649 127.236 38.5811 127.335 38.8505C127.441 39.1199 127.495 39.446 127.495 39.8288V42.551ZM130.661 38.0317H131.724V38.1487H130.661V42.2639C130.661 42.4199 130.682 42.5333 130.725 42.6042C130.767 42.668 130.849 42.6999 130.969 42.6999C131.132 42.6999 131.281 42.6396 131.416 42.5191C131.551 42.3986 131.65 42.2284 131.714 42.0087L131.831 42.0406C131.753 42.3525 131.607 42.5687 131.395 42.6892C131.182 42.8098 130.959 42.87 130.725 42.87C130.314 42.87 130.023 42.7495 129.853 42.5085C129.683 42.2603 129.598 41.8988 129.598 41.4238V38.1487H128.779V38.0317H129.598V36.6813C129.633 36.6883 129.665 36.6954 129.693 36.7025C129.729 36.7025 129.764 36.7025 129.8 36.7025C130.019 36.6883 130.197 36.621 130.331 36.5005C130.466 36.38 130.576 36.2524 130.661 36.1177V38.0317Z" fill="#E5E3E3"/>
<line x1="27.1194" y1="35" x2="27.1194" y2="42.6583" stroke="#E5E3E3" stroke-width="0.0903237"/>
<line x1="67.6194" y1="35" x2="67.6194" y2="42.6583" stroke="#E5E3E3" stroke-width="0.0903237"/>
</svg>
